<svg width="500" height="500" viewBox="0 0 500 500" fill="none" xmlns="http://www.w3.org/2000/svg">
<circle cx="250" cy="250" r="234.285" fill="white" stroke="#566314" stroke-width="31.431"/>
<path d="M284.655 28.0158L312.319 22.1355L331.244 43.1537L322.504 70.0523L294.84 75.9326L275.915 54.9144L284.655 28.0158Z" fill="#566314"/>
<path d="M386.172 75.0842L413.837 80.9645L422.577 107.863L403.652 128.881L375.987 123.001L367.247 96.1024L386.172 75.0842Z" fill="#566314"/>
<path d="M430.109 175.491L457.774 169.61L476.699 190.628L467.959 217.527L440.294 223.407L421.369 202.389L430.109 175.491Z" fill="#566314"/>
<path d="M421.407 296.727L440.332 275.708L467.997 281.589L476.736 308.487L457.812 329.506L430.147 323.625L421.407 296.727Z" fill="#566314"/>
<path d="M366.527 402.322L376.201 375.745L404.054 370.834L422.234 392.5L412.56 419.077L384.707 423.988L366.527 402.322Z" fill="#566314"/>
<path d="M275.577 443.826L294.502 422.808L322.167 428.688L330.907 455.587L311.982 476.605L284.317 470.725L275.577 443.826Z" fill="#566314"/>
<path d="M166.486 455.587L175.226 428.689L202.891 422.808L221.816 443.826L213.076 470.725L185.411 476.605L166.486 455.587Z" fill="#566314"/>
<path d="M74.6082 392.5L92.7881 370.834L120.641 375.745L130.314 402.322L112.135 423.988L84.2815 419.077L74.6082 392.5Z" fill="#566314"/>
<path d="M30.7568 280.806L58.6099 275.895L76.7898 297.561L67.1165 324.138L39.2633 329.049L21.0835 307.383L30.7568 280.806Z" fill="#566314"/>
<path d="M40.0299 170.356L67.6946 176.236L76.4345 203.135L57.5096 224.153L29.8448 218.273L21.105 191.374L40.0299 170.356Z" fill="#566314"/>
<path d="M83.7499 80.9598L111.513 75.5632L130.068 96.9085L120.86 123.65L93.0971 129.047L74.5419 107.702L83.7499 80.9598Z" fill="#566314"/>
<path d="M166.486 43.8264L185.411 22.8082L213.076 28.6885L221.816 55.5871L202.891 76.6053L175.226 70.725L166.486 43.8264Z" fill="#566314"/>
<path d="M338.519 98.0018H161.681L74.7774 249.551L161.681 401.605H338.519L425.423 249.551L338.519 98.0018Z" fill="#566314"/>
<path fill-rule="evenodd" clip-rule="evenodd" d="M354.687 154.075H182.901C182.901 154.075 142.481 154.075 142.481 200.045C142.481 251.066 188.964 248.541 188.964 248.541C188.964 248.541 147.029 323.81 138.439 323.81H129.85V334.418H161.176L210.69 248.541H228.374V313.201C228.374 316.738 225.848 323.81 221.806 323.81H211.701V334.418H302.646V323.81C285.973 323.81 285.973 313.201 285.973 313.201V251.066H310.73C318.588 251.066 323.362 262.685 323.362 266.726V283.902H332.961V205.602H323.362V219.746C323.362 228.334 314.267 237.427 310.73 237.427H285.973V169.23H325.383C350.14 169.23 359.235 205.602 359.235 205.602L367.824 201.055L354.687 154.075ZM228.374 235.911V168.22H186.438C186.438 168.22 162.691 170.745 162.691 200.045C162.691 232.88 188.964 235.911 188.964 235.911H228.374ZM257.174 165.189C267.784 165.189 267.784 175.292 267.784 175.292V313.201C267.784 313.201 266.773 323.81 257.679 323.81C247.574 323.81 246.563 313.201 246.563 313.201V175.292C246.563 175.292 246.563 165.189 257.174 165.189Z" fill="white"/>
</svg>
